# xmcd
#
# Track frame offsets:
#	150
#	11189
#	23387
#	39617
#	54074
#	72275
#	91397
#	105830
#	123176
#	145001
#	159773
#	174482
#
# Disc length: 2586 seconds
#
# Revision: 1
# Processed by: cddbd v1.5.2PL0 Copyright (c) Steve Scherf et al.
# Submitted via: audiograbber 1.83.01
#
DISCID=820a180c
DTITLE=Garth Brooks - Gunslinger
DYEAR=2016
DGENRE=Country
TTITLE0=Honky-Tonk Somewhere
TTITLE1=Weekend
TTITLE2=Ask Me How I Know
TTITLE3=Baby, Let's Lay Down And Dance
TTITLE4=He Really Loves You
TTITLE5=Whiskey To Wine
TTITLE6=Bang! Bang!
TTITLE7=Pure Adrenaline
TTITLE8=Steen
TTITLE9=Sugarcane
TTITLE10=Cowboys And Friends
TTITLE11=Friends In Low Places (25th Anniversary Edition)
EXTD=
EXTT0=
EXTT1=
EXTT2=
EXTT3=
EXTT4=
EXTT5=
EXTT6=
EXTT7=
EXTT8=
EXTT9=
EXTT10=
EXTT11=
PLAYORDER=
